<svg xmlns="http://www.w3.org/2000/svg" width="120" height="120" fill="none"><path fill="url(#a)" d="M39.25 31c8.019 0 56.274 2.843 62.065 8.528 5.79 5.69 8.685 12.536 8.685 20.547 0 8.01-2.895 14.834-8.685 20.47C95.525 86.18 47.269 89 39.251 89s-14.898-2.82-20.638-8.455C12.873 74.909 10 68.085 10 60.075c0-8.011 2.868-14.858 8.613-20.547C24.353 33.843 31.233 31 39.25 31Zm0 11.57c-4.75 0-8.785 1.732-12.102 5.191-3.316 3.464-4.973 7.567-4.973 12.314 0 4.746 1.657 8.95 4.973 12.313 3.317 3.364 7.352 5.042 12.103 5.042 4.75 0 47.626.923 53.6-5.042 3.317-3.36 4.974-7.467 4.974-12.313 0-4.847-1.66-8.85-4.974-12.314-4.578-5.19-48.75-5.19-53.6-5.19Z"/><path fill="url(#b)" d="M45.724 68.312c4.595 0 8.32-3.722 8.32-8.314 0-4.591-3.725-8.313-8.32-8.313-4.596 0-8.321 3.722-8.321 8.313 0 4.592 3.725 8.314 8.32 8.314Z"/><path fill="url(#c)" d="M74.472 68.312c4.596 0 8.321-3.722 8.321-8.314 0-4.591-3.725-8.313-8.321-8.313s-8.321 3.722-8.321 8.313c0 4.592 3.725 8.314 8.321 8.314Z"/><defs><linearGradient id="a" x1="161.227" x2="-112.272" y1="35.964" y2="35.964" gradientUnits="userSpaceOnUse"><stop stop-color="#1070AD"/><stop offset=".5" stop-color="#2FB8EC"/><stop offset="1" stop-color="#1070AD"/></linearGradient><linearGradient id="b" x1="161.227" x2="-112.272" y1="35.964" y2="35.964" gradientUnits="userSpaceOnUse"><stop stop-color="#1070AD"/><stop offset=".5" stop-color="#2FB8EC"/><stop offset="1" stop-color="#1070AD"/></linearGradient><linearGradient id="c" x1="161.227" x2="-112.272" y1="35.964" y2="35.964" gradientUnits="userSpaceOnUse"><stop stop-color="#1070AD"/><stop offset=".5" stop-color="#2FB8EC"/><stop offset="1" stop-color="#1070AD"/></linearGradient></defs></svg>